{
  "accessors": [
    {
      "bufferView": 2,
      "componentType": 5126,
      "count": 65532,
      "max": [
        45.835559844970703,
        6.0845298767089844,
        -73.021560668945312
      ],
      "min": [
        -43.578071594238281,
        -44.792629241943359,
        -74.10302734375
      ],
      "type": "VEC3"
    },
    {
      "bufferView": 2,
      "byteOffset": 786384,
      "componentType": 5126,
      "count": 65532,
      "max": [
        0.81735748052597046,
        0.138790562748909,
        -0.51650208234786987
      ],
      "min": [
        -0.59548234939575195,
        -0.77499020099639893,
        -1
      ],
      "type": "VEC3"
    },
    {
      "bufferView": 1,
      "componentType": 5126,
      "count": 65532,
      "max": [
        0.99829000234603882,
        0.68041998147964478
      ],
      "min": [
        0.21020999550819397,
        0.5310099720954895
      ],
      "type": "VEC2"
    },
    {
      "bufferView": 0,
      "componentType": 5125,
      "count": 65532,
      "max": [
        65531
      ],
      "min": [
        0
      ],
      "type": "SCALAR"
    },
    {
      "bufferView": 2,
      "byteOffset": 1572768,
      "componentType": 5126,
      "count": 65532,
      "max": [
        46.546211242675781,
        46.310791015625,
        -43.606060028076172
      ],
      "min": [
        -44.716609954833984,
        -50.416038513183594,
        -74.102928161621094
      ],
      "type": "VEC3"
    },
    {
      "bufferView": 2,
      "byteOffset": 2359152,
      "componentType": 5126,
      "count": 65532,
      "max": [
        0.9999890923500061,
        0.99505126476287842,
        0.81527096033096313
      ],
      "min": [
        -0.89033633470535278,
        -0.99999070167541504,
        -1
      ],
      "type": "VEC3"
    },
    {
      "bufferView": 1,
      "byteOffset": 524256,
      "componentType": 5126,
      "count": 65532,
      "max": [
        0.99829000234603882,
        0.80637997388839722
      ],
      "min": [
        0.015979999676346779,
        0.161080002784729
      ],
      "type": "VEC2"
    },
    {
      "bufferView": 0,
      "byteOffset": 262128,
      "componentType": 5125,
      "count": 88587,
      "max": [
        65531
      ],
      "min": [
        0
      ],
      "type": "SCALAR"
    },
    {
      "bufferView": 2,
      "byteOffset": 3145536,
      "componentType": 5126,
      "count": 65532,
      "max": [
        49.096668243408203,
        48.056179046630859,
        -38.098430633544922
      ],
      "min": [
        -50.277488708496094,
        -49.712230682373047,
        -72.761390686035156
      ],
      "type": "VEC3"
    },
    {
      "bufferView": 2,
      "byteOffset": 3931920,
      "componentType": 5126,
      "count": 65532,
      "max": [
        0.99996066093444824,
        0.99999159574508667,
        0.99600225687026978
      ],
      "min": [
        -0.99999642372131348,
        -0.99939101934432983,
        -0.99769550561904907
      ],
      "type": "VEC3"
    },
    {
      "bufferView": 1,
      "byteOffset": 1048512,
      "componentType": 5126,
      "count": 65532,
      "max": [
        0.99829000234603882,
        0.90890002250671387
      ],
      "min": [
        0.0037100000772625208,
        0.16139000654220581
      ],
      "type": "VEC2"
    },
    {
      "bufferView": 0,
      "byteOffset": 616476,
      "componentType": 5125,
      "count": 169566,
      "max": [
        65531
      ],
      "min": [
        0
      ],
      "type": "SCALAR"
    },
    {
      "bufferView": 2,
      "byteOffset": 4718304,
      "componentType": 5126,
      "count": 65532,
      "max": [
        50.363380432128906,
        50.416038513183594,
        -24.409149169921875
      ],
      "min": [
        -50.363380432128906,
        -50.416038513183594,
        -53.21112060546875
      ],
      "type": "VEC3"
    },
    {
      "bufferView": 2,
      "byteOffset": 5504688,
      "componentType": 5126,
      "count": 65532,
      "max": [
        0.99983799457550049,
        0.99989932775497437,
        0.99999731779098511
      ],
      "min": [
        -0.99999767541885376,
        -0.99986851215362549,
        -0.98816889524459839
      ],
      "type": "VEC3"
    },
    {
      "bufferView": 1,
      "byteOffset": 1572768,
      "componentType": 5126,
      "count": 65532,
      "max": [
        0.99829000234603882,
        0.99519997835159302
      ],
      "min": [
        0.0046899998560547829,
        0.19538000226020813
      ],
      "type": "VEC2"
    },
    {
      "bufferView": 0,
      "byteOffset": 1294740,
      "componentType": 5125,
      "count": 237525,
      "max": [
        65531
      ],
      "min": [
        0
      ],
      "type": "SCALAR"
    },
    {
      "bufferView": 2,
      "byteOffset": 6291072,
      "componentType": 5126,
      "count": 65533,
      "max": [
        44.447170257568359,
        47.034950256347656,
        -22.377370834350586
      ],
      "min": [
        -45.714019775390625,
        -45.29949951171875,
        -41.506320953369141
      ],
      "type": "VEC3"
    },
    {
      "bufferView": 2,
      "byteOffset": 7077468,
      "componentType": 5126,
      "count": 65533,
      "max": [
        0.99997228384017944,
        0.99998563528060913,
        0.99998140335083008
      ],
      "min": [
        -0.99999767541885376,
        -0.99986851215362549,
        -0.99945592880249023
      ],
      "type": "VEC3"
    },
    {
      "bufferView": 1,
      "byteOffset": 2097024,
      "componentType": 5126,
      "count": 65533,
      "max": [
        0.99829000234603882,
        0.99606001377105713
      ],
      "min": [
        0.0042699999175965786,
        0.23481999337673187
      ],
      "type": "VEC2"
    },
    {
      "bufferView": 0,
      "byteOffset": 2244840,
      "componentType": 5125,
      "count": 279414,
      "max": [
        65532
      ],
      "min": [
        0
      ],
      "type": "SCALAR"
    },
    {
      "bufferView": 2,
      "byteOffset": 7863864,
      "componentType": 5126,
      "count": 14007,
      "max": [
        41.879039764404297,
        44.876319885253906,
        -21.027509689331055
      ],
      "min": [
        -39.360668182373047,
        -40.349620819091797,
        -31.439680099487305
      ],
      "type": "VEC3"
    },
    {
      "bufferView": 2,
      "byteOffset": 8031948,
      "componentType": 5126,
      "count": 14007,
      "max": [
        0.9988744854927063,
        0.99998563528060913,
        0.99999862909317017
      ],
      "min": [
        -0.99979960918426514,
        -0.99919992685317993,
        -0.99874413013458252
      ],
      "type": "VEC3"
    },
    {
      "bufferView": 1,
      "byteOffset": 2621288,
      "componentType": 5126,
      "count": 14007,
      "max": [
        0.99829000234603882,
        0.99598997831344604
      ],
      "min": [
        0.0066700000315904617,
        0.24003000557422638
      ],
      "type": "VEC2"
    },
    {
      "bufferView": 0,
      "byteOffset": 3362496,
      "componentType": 5125,
      "count": 40596,
      "max": [
        14006
      ],
      "min": [
        0
      ],
      "type": "SCALAR"
    }
  ],
  "asset": {
    "extras": {
      "author": "ronenh (https://sketchfab.com/ronenh)",
      "license": "CC-BY-ND-4.0 (http://creativecommons.org/licenses/by-nd/4.0/)",
      "source": "https://sketchfab.com/3d-models/lemon-meringue-pie-b947b19c39ad426ba959729627ca5432",
      "title": "Lemon Meringue Pie"
    },
    "generator": "Sketchfab-7.90.0",
    "version": "2.0"
  },
  "bufferViews": [
    {
      "buffer": 0,
      "byteLength": 3524880,
      "byteOffset": 0,
      "name": "floatBufferViews",
      "target": 34963
    },
    {
      "buffer": 0,
      "byteLength": 2733344,
      "byteOffset": 3524880,
      "byteStride": 8,
      "name": "floatBufferViews",
      "target": 34962
    },
    {
      "buffer": 0,
      "byteLength": 8200032,
      "byteOffset": 6258224,
      "byteStride": 12,
      "name": "floatBufferViews",
      "target": 34962
    }
  ],
  "buffers": [
    {
      "byteLength": 14458256,
      "uri": "scene.bin"
    }
  ],
  "extensionsUsed": [
    "KHR_materials_unlit"
  ],
  "images": [
    {
      "uri": "textures/material0_baseColor.jpeg"
    }
  ],
  "materials": [
    {
      "doubleSided": true,
      "emissiveFactor": [
        0,
        0,
        0
      ],
      "emissiveTexture": {
        "index": 0,
        "texCoord": 0
      },
      "extensions": {
        "KHR_materials_unlit": {}
      },
      "name": "material0",
      "pbrMetallicRoughness": {
        "baseColorFactor": [
          1,
          1,
          1,
          1
        ],
        "baseColorTexture": {
          "index": 0,
          "texCoord": 0
        },
        "metallicFactor": 0,
        "roughnessFactor": 1
      }
    }
  ],
  "meshes": [
    {
      "primitives": [
        {
          "attributes": {
            "NORMAL": 1,
            "POSITION": 0,
            "TEXCOORD_0": 2
          },
          "indices": 3,
          "material": 0,
          "mode": 4
        }
      ]
    },
    {
      "primitives": [
        {
          "attributes": {
            "NORMAL": 5,
            "POSITION": 4,
            "TEXCOORD_0": 6
          },
          "indices": 7,
          "material": 0,
          "mode": 4
        }
      ]
    },
    {
      "primitives": [
        {
          "attributes": {
            "NORMAL": 9,
            "POSITION": 8,
            "TEXCOORD_0": 10
          },
          "indices": 11,
          "material": 0,
          "mode": 4
        }
      ]
    },
    {
      "primitives": [
        {
          "attributes": {
            "NORMAL": 13,
            "POSITION": 12,
            "TEXCOORD_0": 14
          },
          "indices": 15,
          "material": 0,
          "mode": 4
        }
      ]
    },
    {
      "primitives": [
        {
          "attributes": {
            "NORMAL": 17,
            "POSITION": 16,
            "TEXCOORD_0": 18
          },
          "indices": 19,
          "material": 0,
          "mode": 4
        }
      ]
    },
    {
      "primitives": [
        {
          "attributes": {
            "NORMAL": 21,
            "POSITION": 20,
            "TEXCOORD_0": 22
          },
          "indices": 23,
          "material": 0,
          "mode": 4
        }
      ]
    }
  ],
  "nodes": [
    {
      "children": [
        1
      ],
      "name": "RootNode (gltf orientation matrix)",
      "rotation": [
        -0.70710678118654746,
        -0,
        -0,
        0.70710678118654757
      ]
    },
    {
      "children": [
        2
      ],
      "name": "RootNode (model correction matrix)"
    },
    {
      "children": [
        3,
        4,
        5,
        6,
        7,
        8
      ],
      "name": "model_Lemon Meringue Pie_20200306_165220958.obj.cleaner.materialmerger.gles"
    },
    {
      "mesh": 0,
      "name": ""
    },
    {
      "mesh": 1,
      "name": ""
    },
    {
      "mesh": 2,
      "name": ""
    },
    {
      "mesh": 3,
      "name": ""
    },
    {
      "mesh": 4,
      "name": ""
    },
    {
      "mesh": 5,
      "name": ""
    }
  ],
  "samplers": [
    {
      "magFilter": 9729,
      "minFilter": 9987,
      "wrapS": 10497,
      "wrapT": 10497
    }
  ],
  "scene": 0,
  "scenes": [
    {
      "name": "OSG_Scene",
      "nodes": [
        0
      ]
    }
  ],
  "textures": [
    {
      "sampler": 0,
      "source": 0
    }
  ]
}

